# xmcd
#
# Track frame offsets: 
#        150
#        12302
#        22874
#        34513
#        47025
#        59435
#        73263
#        87500
#        97943
#        110229
#        123861
#        137582
#        153110
#        172199
#        184139
#        196497
#        209511
#        221942
#        235241
#        250238
#        266367
#        288688
#        305430
#        331466
#
# Disc length: 4722 seconds
#
# Revision: 2
# Processed by: cddbd v1.5.2PL0 Copyright (c) Steve Scherf et al.
# Submitted via: ExactAudioCopyFreeDBPlugin 1.0
#
DISCID=68127018
DTITLE=Various Artist - Holland Dozier Holland:  The Complete 45s Col
DTITLE=lection (Invictus, Hot Wax, Music Merchant), 1969-1977 [Harmles
DTITLE=s box set]
DYEAR=2014
DGENRE=Soul
TTITLE0=Brenda Holloway - Let Love Grow
TTITLE1=Just Brothers - Tears Ago
TTITLE2=The Jones Girls - Come Back
TTITLE3=Brotherly Love - Mama's Little Baby (Loves Lovin')
TTITLE4=Warlock - You've Been My Rock
TTITLE5=Sweet Rock - Big Train
TTITLE6=Brotherly Love - Growing Pains
TTITLE7=Just Brothers - Things Will Be Better Tomorrow
TTITLE8=The Jones Girls - Your Love Controls Me
TTITLE9=Eloise Laws - Tighten Him Up
TTITLE10=The Smith Connection - I Can't Hold on Much Longer
TTITLE11=Eloise Laws - Love Factory
TTITLE12=The Smith Connection - I've Come to Stay
TTITLE13=The Smith Connection - I'm Bugging Your Phone (Part 1)
TTITLE14=Raynel Wynglass - Bar-B-Q Ribs
TTITLE15=The Jones Girls - Taster of the Honey (Not Keeper of the Bee)
TTITLE16=The Chairmen of the Board - What's the Use
TTITLE17=The Barrino Brothers - Trapped in a Love
TTITLE18=Eloise Laws - (You're Mine) Baby Doll
TTITLE19=The Barrino Brothers - Something About You
TTITLE20=Eloise Laws - Don't Burn the Bridge
TTITLE21=Satisfaction Unlimited - Bright City Lights (single version)
TTITLE22=100 Proof Aged in Soul - Since You've Been Gone (long version
TTITLE22=)
TTITLE23=Freda Payne - The Unhooked Generation (2014 Tom Moulton Mix)
EXTD=
EXTT0=
EXTT1=
EXTT2=
EXTT3=
EXTT4=
EXTT5=
EXTT6=
EXTT7=
EXTT8=
EXTT9=
EXTT10=
EXTT11=
EXTT12=
EXTT13=
EXTT14=
EXTT15=
EXTT16=
EXTT17=
EXTT18=
EXTT19=
EXTT20=
EXTT21=
EXTT22=
EXTT23=
PLAYORDER=
